# AST/ASF file generated using VICON BodyLanguage
# -----------------------------------------------
:version 1.10
:name VICON
:units
  mass 1.0
  length 0.45
  angle deg
:documentation
   .ast/.asf automatically generated from VICON data using
   VICON BodyBuilder and BodyLanguage model FoxedUp or BRILLIANT.MOD
:root
   order TX TY TZ RX RY RZ
   axis XYZ
   position 0 0 0  
   orientation 0 0 0 
:bonedata
  begin
     id 1 
     name lhipjoint
     direction 0.661853 -0.702389 0.261917 
     length 2.64193 
     axis 0 0 0  XYZ
  end
  begin
     id 2 
     name lfemur
     direction 0.34202 -0.939693 0  
     length 7.01722  
     axis 0 0 20  XYZ
    dof rx ry rz
    limits (-160.0 20.0)
           (-70.0 70.0)
           (-60.0 70.0)
  end
  begin
     id 3 
     name ltibia
     direction 0.34202 -0.939693 0   
     length 8.25008   
     axis 0 0 20   XYZ
    dof rx
    limits (-10.0 170.0)
  end
  begin
     id 4 
     name lfoot
     direction 0.0709916 -0.195048 0.978221   
     length 2.31941   
     axis -90 7.62852e-016 20   XYZ
    dof rx rz
    limits (-45.0 90.0)
           (-70.0 20.0)
  end
  begin
     id 5 
     name ltoes
     direction 1.53586e-011 -4.22017e-011 1   
     length 1.16486   
     axis -90 7.62852e-016 20   XYZ
    dof rx
    limits (-90.0 20.0)
  end
  begin
     id 6 
     name rhipjoint
     direction -0.638185 -0.721362 0.268992   
     length 2.57244  
     axis 0 0 0  XYZ 
  end
  begin
     id 7 
     name rfemur
     direction -0.34202 -0.939693 0   
     length 7.07017   
     axis 0 0 -20   XYZ
    dof rx ry rz
    limits (-160.0 20.0)
           (-70.0 70.0)
           (-70.0 60.0)
  end
  begin
     id 8 
     name rtibia
     direction -0.34202 -0.939693 0   
     length 8.20386   
     axis 0 0 -20   XYZ
    dof rx
    limits (-10.0 170.0)
 end
 begin
     id 9 
     name rfoot
     direction -0.0822429 -0.225961 0.970658   
     length 2.32215  
     axis -90 -7.62852e-016 -20   XYZ
    dof rx rz
    limits (-45.0 90.0)
           (-20.0 70.0)
  end
  begin
     id 10 
     name rtoes
     direction -1.53597e-011 -4.21689e-011 1   
     length 1.16333   
     axis -90 -7.62852e-016 -20   XYZ
    dof rx
    limits (-90.0 20.0)
  end
  begin
     id 11 
     name lowerback
     direction -0.0131557 0.998589 -0.0514484   
     length 2.14993   
     axis 0 0 0   XYZ
    dof rx ry rz
    limits (-20.0 45.0)
           (-30.0 30.0)
           (-30.0 30.0)
  end
  begin
     id 12 
     name upperback
     direction -0.000776481 0.999993 0.00352685   
     length 2.15301   
     axis 0 0 0   XYZ
    dof rx ry rz
    limits (-20.0 45.0)
           (-30.0 30.0)
           (-30.0 30.0)
  end
  begin
     id 13 
     name thorax
     direction 0.00438186 0.999609 0.0276143   
     length 2.15424   
     axis 0 0 0   XYZ
    dof rx ry rz
    limits (-20.0 45.0)
           (-30.0 30.0)
           (-30.0 30.0)
  end
  begin
     id 14 
     name lowerneck
     direction -0.0488006 0.998094 0.0377807   
     length 1.90481   
     axis 0 0 0   XYZ
    dof rx ry rz
    limits (-20.0 45.0)
           (-30.0 30.0)
           (-30.0 30.0)
  end
  begin
     id 15 
     name upperneck
     direction 0.0443769 0.990702 -0.12861   
     length 1.91305   
     axis 0 0 0   XYZ
    dof rx ry rz
    limits (-20.0 45.0)
           (-30.0 30.0)
           (-30.0 30.0)
  end
  begin
     id 16
     name head
     direction 0.0165599 0.998647 -0.0492982  
     length 1.92369  
     axis 0 0 0   XYZ
    dof rx ry rz
    limits (-20.0 45.0)
           (-30.0 30.0)
           (-30.0 30.0)
  end
  begin
     id 17 
     name lclavicle
     direction 0.911936 0.410197 -0.0105506  
     length 3.52622  
     axis 0 0 0   XYZ
    dof ry rz
    limits (-20.0 10.0)
           (0.0 20.0)
  end
  begin
     id 18 
     name lhumerus
     direction 1 -4.48974e-011 -2.48591e-028   
     length 5.47651   
     axis 180 -30 -90   XYZ
    dof rx ry rz
    limits (-60.0 90.0)
           (-90.0 90.0)
           (-90.0 90.0)
  end
  begin
     id 19
     name lradius
     direction 1 -4.48938e-011 -4.40099e-027   
     length 3.09058   
     axis 180 -30 -90   XYZ
    dof rx
    limits (-10.0 170.0)
  end
  begin
     id 20
     name lwrist
     direction 1 -4.49042e-011 -2.99852e-027   
     length 1.54529   
     axis 1.95339e-015 90 90   XYZ
    dof ry
    limits (-180.0 0.0)
 end
  begin
     id 21 
     name lhand
     direction 1 -4.48815e-011 -5.98193e-027   
     length 0.771611   
     axis 3.82337e-015 90 90   XYZ
    dof rx rz
    limits (-90.0 90.0)
           (-45.0 45.0)
  end
  begin
     id 22 
     name lfingers
     direction 1 -4.49034e-011 -1.1993e-026   
     length 0.622093   
     axis 7.64668e-015 90 90   XYZ
    dof rx
    limits (0.0 90.0)
  end
  begin
     id 23
     name lthumb
     direction 0.707107 -6.34867e-011 0.707107   
     length 0.893204   
     axis -90 45 -1.62303e-014   XYZ
    dof rx rz
    limits (-45.0 45.0)
           (-45.0 45.0)
  end
  begin
     id 24 
     name rclavicle
     direction -0.93442 0.355634 -0.0195692   
     length 3.62463  
     axis 0 0 0   XYZ 
    dof ry rz
    limits (-10.0 20.0)
           (-20.0 0.0)
  end
  begin
     id 25 
     name rhumerus
     direction -1 -4.48957e-011 -1.19147e-027  
     length 5.14182   
     axis 180 30 90   XYZ
    dof rx ry rz
    limits (-90.0 60.0)
           (-90.0 90.0)
           (-90.0 90.0)
  end
  begin
     id 26 
     name rradius
     direction -1 -4.48952e-011 -3.81062e-027   
     length 3.35565   
     axis 180 30 90   XYZ
    dof rx
    limits (-10.0 170.0)
  end
  begin
     id 27 
     name rwrist
     direction -1 -4.48973e-011 -2.99621e-027   
     length 1.67782   
     axis 1.95339e-015 -90 -90   XYZ
    dof ry
    limits (-180.0 0.0)
  end
  begin
     id 28
     name rhand
     direction -1 -4.48895e-011 -5.98727e-027   
     length 0.801042   
     axis 3.82337e-015 -90 -90   XYZ
    dof rx rz
    limits (-90.0 90.0)
           (-45.0 45.0)
  end
  begin
     id 29
     name rfingers
     direction -1 -4.49065e-011 -1.19972e-026   
     length 0.645821   
     axis 7.64668e-015 -90 -90   XYZ
    dof rx
    limits (0.0 90.0)
  end
  begin
     id 30
     name rthumb
     direction -0.707107 -6.34957e-011 0.707107   
     length 0.927273   
     axis -90 -45 1.62303e-014   XYZ
    dof rx rz
    limits (-45.0 45.0)
           (-45.0 45.0)
  end
:hierarchy
  begin
    root lhipjoint rhipjoint lowerback
    lhipjoint lfemur
    lfemur ltibia
    ltibia lfoot
    lfoot ltoes
    rhipjoint rfemur
    rfemur rtibia
    rtibia rfoot
    rfoot rtoes
    lowerback upperback
    upperback thorax
    thorax lowerneck lclavicle rclavicle
    lowerneck upperneck
    upperneck head
    lclavicle lhumerus
    lhumerus lradius
    lradius lwrist
    lwrist lhand lthumb
    lhand lfingers
    rclavicle rhumerus
    rhumerus rradius
    rradius rwrist
    rwrist rhand rthumb
    rhand rfingers
  end

#!OML:ASF E:\Style4\Style4.ASF
:FULLY-SPECIFIED
:DEGREES
584
root 0.489606 17.6681 -1.71902 1.54184 -11.0707 2.27276
lowerback 10.5415 -1.96595 -5.27955
upperback 5.95307 -3.12025 -3.18495
thorax 0.412565 -1.64792 -0.0350835
lowerneck 4.07918 3.231 -5.56711
upperneck 4.52029 3.89556 8.3921
head 0.424849 1.88483 3.65895
rclavicle -2.74323e-014 -4.13472e-014
rhumerus -32.0109 43.5672 -64.8004
rradius 133.14
rwrist -30.3332
rhand -30.9016 27.4388
rfingers 7.12502
rthumb -4.18813 -2.49973
lclavicle -2.74323e-014 -4.13472e-014
lhumerus 41.3501 -70.1045 55.2015
lradius 120.712
lwrist 48.7835
lhand -33.798 23.307
lfingers 7.12502
lthumb -6.98457 53.1717
rfemur -20.6466 6.4447 14.2431
rtibia 35.7804
rfoot -16.9101 -7.62992
rtoes -13.1313
lfemur -15.8992 5.1756 -22.5705
ltibia 34.1062
lfoot -21.3245 9.92237
ltoes -9.85581
585
root 0.480523 17.6731 -1.7305 1.59722 -10.8117 2.17913
lowerback 10.4721 -1.88957 -5.30887
upperback 5.90071 -3.01925 -3.2493
thorax 0.390029 -1.59567 -0.0960509
lowerneck 4.04533 3.20687 -5.49063
upperneck 4.23313 3.87893 8.71924
head 0.333835 1.87769 3.75593
rclavicle -1.70955e-014 1.35174e-014
rhumerus -28.9141 42.787 -62.94
rradius 133.259
rwrist -29.8687
rhand -30.8575 27.3319
rfingers 7.12502
rthumb -4.14549 -2.60755
lclavicle -1.70955e-014 1.35174e-014
lhumerus 41.2535 -68.8524 56.0662
lradius 120.972
lwrist 48.0693
lhand -33.8202 22.8943
lfingers 7.12502
lthumb -7.00599 52.7584
rfemur -20.5552 6.30333 14.3774
rtibia 35.5678
rfoot -16.8197 -7.73047
rtoes -13.0341
lfemur -15.937 4.97758 -22.436
ltibia 33.979
lfoot -21.1986 9.98358
ltoes -10.4255
586
root 0.471898 17.6811 -1.74113 1.55893 -10.606 2.15132
lowerback 10.4784 -1.77249 -5.34843
upperback 5.85268 -2.8718 -3.35391
thorax 0.327891 -1.51929 -0.194445
lowerneck 4.08865 3.17486 -5.55264
upperneck 3.85249 3.84936 9.20821
head 0.193212 1.85909 3.93569
rclavicle 4.29375e-014 2.38542e-014
rhumerus -25.9708 41.8385 -61.3454
rradius 133.28
rwrist -29.3063
rhand -31.1675 27.7403
rfingers 7.12502
rthumb -4.44488 -2.1931
lclavicle 4.29375e-014 2.38542e-014
lhumerus 40.8904 -67.5443 57.2157
lradius 120.901
lwrist 46.9821
lhand -33.1695 22.2958
lfingers 7.12502
lthumb -6.37788 52.1798
rfemur -20.3938 6.22823 14.4471
rtibia 35.3734
rfoot -16.6907 -7.84532
rtoes -13.1719
lfemur -15.8795 4.83013 -22.366
ltibia 33.8615
lfoot -21.0801 9.98586
ltoes -10.7297
587
root 0.463012 17.6882 -1.75209 1.51565 -10.4077 2.0942
lowerback 10.5478 -1.60812 -5.28946
upperback 5.77629 -2.66016 -3.4722
thorax 0.194021 -1.4068 -0.364984
lowerneck 4.29255 3.10609 -5.7929
upperneck 3.33684 3.76799 9.9347
head -0.0254638 1.80577 4.23539
rclavicle -1.55052e-014 -7.95139e-015
rhumerus -23.3206 40.7544 -60.0218
rradius 133.27
rwrist -28.9872
rhand -31.7216 28.6363
rfingers 7.12502
rthumb -4.97993 -1.28522
lclavicle -1.55052e-014 -7.95139e-015
lhumerus 40.4998 -66.3509 58.4447
lradius 120.652
lwrist 45.91
lhand -32.367 21.127
lfingers 7.12502
lthumb -5.60303 51.0329
rfemur -20.2306 6.18797 14.551
rtibia 35.2039
rfoot -16.5752 -7.99036
rtoes -13.4506
lfemur -15.8198 4.73487 -22.2599
ltibia 33.7574
lfoot -20.97 9.89279
ltoes -10.7086
588
root 0.454012 17.6925 -1.76445 1.51478 -10.1867 2.0048
lowerback 10.6351 -1.46625 -5.2761
upperback 5.66057 -2.48498 -3.52568
thorax 0.0168276 -1.31314 -0.438938
lowerneck 4.45169 3.01632 -5.90983
upperneck 2.99697 3.65876 10.4006
head -0.168392 1.74141 4.42443
rclavicle -6.95746e-014 9.54166e-015
rhumerus -20.732 39.8516 -58.7943
rradius 133.166
rwrist -28.9737
rhand -32.0808 29.4401
rfingers 7.12502
rthumb -5.32671 -0.472937
lclavicle -6.95746e-014 9.54166e-015
lhumerus 40.0431 -65.0571 59.7326
lradius 120.387
lwrist 44.6048
lhand -31.2484 20.2449
lfingers 7.12502
lthumb -4.52304 50.1766
rfemur -20.1302 6.12954 14.6852
rtibia 35.0601
rfoot -16.481 -8.12365
rtoes -13.5053
lfemur -15.8122 4.63178 -22.1267
ltibia 33.6648
lfoot -20.8272 9.82059
ltoes -10.6831
589
root 0.443415 17.6953 -1.77795 1.52301 -9.95471 1.97206
lowerback 10.6008 -1.35091 -5.33808
upperback 5.61769 -2.33803 -3.57977
thorax -0.0129843 -1.23894 -0.475263
lowerneck 4.44789 2.92032 -5.90977
upperneck 2.78479 3.54569 10.6506
head -0.232375 1.68198 4.51683
rclavicle -1.59028e-015 -7.95139e-015
rhumerus -17.9469 38.8994 -57.6567
rradius 132.919
rwrist -29.1033
rhand -32.1634 29.7413
rfingers 7.12502
rthumb -5.4065 -0.169769
lclavicle -1.59028e-015 -7.95139e-015
lhumerus 40.0373 -63.7009 60.5295
lradius 120.106
lwrist 43.2546
lhand -30.5378 19.7795
lfingers 7.12502
lthumb -3.83678 49.7247
rfemur -20.0665 6.03293 14.7627
rtibia 34.9394
rfoot -16.3859 -8.25761
rtoes -13.4136
lfemur -15.8458 4.50084 -22.0533
ltibia 33.6042
lfoot -20.7536 9.78332
ltoes -10.7737
590
root 0.434251 17.6986 -1.79062 1.51854 -9.73575 1.90982
lowerback 10.3896 -1.16896 -5.13639
upperback 5.74652 -2.05745 -3.73976
thorax 0.214373 -1.0982 -0.789738
lowerneck 4.31147 2.70753 -5.87098
upperneck 2.44899 3.29286 11.0131
head -0.301109 1.55437 4.64796
rclavicle 1.47101e-014 1.59028e-015
rhumerus -15.1746 37.3347 -56.7465
rradius 132.552
rwrist -29.8243
rhand -31.462 29.5334
rfingers 7.12502
rthumb -4.72922 -0.393795
lclavicle 1.47101e-014 1.59028e-015
lhumerus 41.0397 -62.5518 60.348
lradius 119.81
lwrist 42.1347
lhand -30.5071 19.3719
lfingers 7.12502
lthumb -3.80719 49.3177
rfemur -19.993 5.97617 14.8692
rtibia 34.8561
rfoot -16.2748 -8.42657
rtoes -13.778
lfemur -15.8727 4.39996 -21.9502
ltibia 33.5674
lfoot -20.6202 9.73062
ltoes -11.048
591
root 0.426396 17.7025 -1.80478 1.52066 -9.53113 1.8227
lowerback 10.2337 -0.997902 -4.89561
upperback 5.84549 -1.79438 -3.9016
thorax 0.382978 -0.962903 -1.12272
lowerneck 4.1759 2.50289 -5.80979
upperneck 2.10726 3.05357 11.3273
head -0.3708 1.43305 4.7572
rclavicle 1.11319e-014 -1.27222e-014
rhumerus -12.6205 35.9288 -56.0864
rradius 132.072
rwrist -30.5775
rhand -30.9794 29.5524
rfingers 7.12502
rthumb -4.26322 -0.38464
lclavicle 1.11319e-014 -1.27222e-014
lhumerus 41.8761 -61.3593 60.2471
lradius 119.484
lwrist 41.079
lhand -30.538 19.1155
lfingers 7.12502
lthumb -3.83697 49.0607
rfemur -19.9477 5.92846 14.9977
rtibia 34.7956
rfoot -16.2161 -8.54622
rtoes -14.0393
lfemur -15.921 4.30397 -21.8171
ltibia 33.5465
lfoot -20.562 9.62651
ltoes -10.8618
592
root 0.416896 17.7031 -1.82086 1.52332 -9.30361 1.82574
lowerback 10.2047 -0.874481 -4.92632
upperback 5.82583 -1.63271 -3.96584
thorax 0.375111 -0.881298 -1.18791
lowerneck 4.17465 2.38817 -5.8072
upperneck 1.78457 2.92732 11.4767
head -0.4666 1.36444 4.81402
rclavicle -9.54166e-015 -6.36111e-015
rhumerus -10.3787 35.166 -55.5146
rradius 131.521
rwrist -30.3995
rhand -31.4894 30.0076
rfingers 7.12502
rthumb -4.75569 0.0810031
lclavicle -9.54166e-015 -6.36111e-015
lhumerus 42.1063 -60.0436 60.6776
lradius 119.064
lwrist 40.0359
lhand -30.4495 18.8425
lfingers 7.12502
lthumb -3.7515 48.7892
rfemur -19.9334 5.86937 15.029
rtibia 34.7504
rfoot -16.1195 -8.66624
rtoes -13.9491
lfemur -16.0192 4.20844 -21.7774
ltibia 33.5584
lfoot -20.557 9.54158
ltoes -10.8486
593
root 0.408139 17.7029 -1.83656 1.50261 -9.04402 1.7951
lowerback 10.2562 -0.718038 -4.89428
upperback 5.79511 -1.42865 -4.00392
thorax 0.310114 -0.776436 -1.26334
lowerneck 4.2264 2.23047 -5.77176
upperneck 1.43784 2.73968 11.9814
head -0.533194 1.25769 4.48714
rclavicle 1.15295e-014 3.18055e-014
rhumerus -8.25142 34.4817 -55.0409
rradius 130.649
rwrist -29.3935
rhand -32.1678 30.5423
rfingers 7.12502
rthumb -5.41071 0.631326
lclavicle 1.15295e-014 3.18055e-014
lhumerus 42.2209 -58.8091 61.3158
lradius 118.518
lwrist 39.0884
lhand -30.2968 18.6416
lfingers 7.12502
lthumb -3.60405 48.5908
rfemur -19.8903 5.76675 15.0968
rtibia 34.7309
rfoot -16.0636 -8.78977
rtoes -13.7312
lfemur -16.0785 4.12717 -21.7118
ltibia 33.5856
lfoot -20.4565 9.44673
ltoes -11.057
594
root 0.399389 17.7017 -1.85319 1.46054 -8.77723 1.67741
lowerback 10.3599 -0.536719 -4.74735
upperback 5.78192 -1.18426 -3.99548
thorax 0.232918 -0.649575 -1.35852
lowerneck 4.18918 2.0179 -5.86928
upperneck 1.19478 2.47388 12.1813
head -0.578513 1.11983 4.57012
rclavicle -3.22031e-014 -4.6118e-014
rhumerus -5.89507 33.6256 -54.497
rradius 129.568
rwrist -28.6631
rhand -32.6883 31.3189
rfingers 7.12502
rthumb -5.91328 1.42146
lclavicle -3.22031e-014 -4.6118e-014
lhumerus 42.5929 -57.6345 61.6584
lradius 118.026
lwrist 38.233
lhand -30.2934 18.6281
lfingers 7.12502
lthumb -3.60077 48.5774
rfemur -19.8249 5.64833 15.2724
rtibia 34.7553
rfoot -16.057 -8.89724
rtoes -13.3929
lfemur -16.1046 4.0308 -21.5407
ltibia 33.6081
lfoot -20.3405 9.34291
ltoes -11.0257
595
root 0.391689 17.7009 -1.8693 1.41267 -8.54397 1.70596
lowerback 10.3114 -0.334898 -4.80306
upperback 5.84087 -0.913862 -3.94909
thorax 0.320363 -0.517938 -1.30698
lowerneck 4.14241 1.79569 -6.06945
upperneck 0.897006 2.19551 12.3037
head -0.635927 0.975242 4.64691
rclavicle 1.07344e-014 1.90833e-014
rhumerus -3.36679 32.3026 -53.8451
rradius 128.655
rwrist -29.3054
rhand -32.2923 31.8218
rfingers 7.12502
rthumb -5.53095 1.914
lclavicle 1.07344e-014 1.90833e-014
lhumerus 43.2437 -56.3998 61.7836
lradius 117.566
lwrist 37.549
lhand -30.331 18.7565
lfingers 7.12502
lthumb -3.63712 48.7052
rfemur -19.8002 5.50375 15.2723
rtibia 34.7999
rfoot -16.0274 -8.97404
rtoes -13.319
lfemur -16.1425 3.94379 -21.5355
ltibia 33.6204
lfoot -20.2115 9.22906
ltoes -11.0147
596
root 0.383856 17.6999 -1.88737 1.33905 -8.3652 1.85254
lowerback 10.1482 -0.104863 -5.02031
upperback 5.99465 -0.60534 -3.90377
thorax 0.571247 -0.374745 -1.17113
lowerneck 4.10215 1.58282 -6.22013
upperneck 0.49153 1.94021 12.2951
head -0.724527 0.841155 4.67446
rclavicle -9.93923e-015 -6.36111e-015
rhumerus -0.893671 30.8929 -53.3116
rradius 127.653
rwrist -29.7092
rhand -31.9809 31.8838
rfingers 7.12502
rthumb -5.23027 1.96834
lclavicle -9.93923e-015 -6.36111e-015
lhumerus 43.5573 -55.1009 62.3536
lradius 116.887
lwrist 36.829
lhand -30.1052 18.4975
lfingers 7.12502
lthumb -3.41907 48.4498
rfemur -19.8002 5.39285 15.1428
rtibia 34.8648
rfoot -15.9904 -9.03306
rtoes -13.4721
lfemur -16.175 3.89909 -21.6613
ltibia 33.6306
lfoot -20.1279 9.09604
ltoes -10.7929
597
root 0.375303 17.6987 -1.90544 1.28102 -8.15758 1.90971
lowerback 10.0535 0.117614 -5.09964
upperback 6.1238 -0.301601 -3.86634
thorax 0.7549 -0.229533 -1.11771
lowerneck 4.04173 1.34005 -6.34326
upperneck 0.13158 1.64253 12.3228
head -0.79228 0.687436 4.7101
rclavicle -1.11319e-014 -4.77083e-015
rhumerus 1.47733 29.6722 -52.9728
rradius 126.351
rwrist -29.4156
rhand -32.2352 32.5425
rfingers 7.12502
rthumb -5.47583 2.63322
lclavicle -1.11319e-014 -4.77083e-015
lhumerus 43.6658 -53.8119 63.0846
lradius 116.073
lwrist 35.9876
lhand -30.0669 17.7794
lfingers 7.12502
lthumb -3.38204 47.7323
rfemur -19.8164 5.283 15.1152
rtibia 34.9528
rfoot -15.9509 -9.13543
rtoes -13.8813
lfemur -16.214 3.82947 -21.6912
ltibia 33.6454
lfoot -20.0638 9.04167
ltoes -10.8114
598
root 0.364969 17.6973 -1.92401 1.26634 -7.95331 1.87975
lowerback 8.96379 0.427235 -5.04914
upperback 6.86062 0.243749 -3.78086
thorax 2.11568 0.0144131 -1.10564
lowerneck 4.09765 0.992383 -6.37818
upperneck -1.00001 1.26956 12.2422
head -1.09455 0.477922 4.69924
rclavicle -3.49861e-014 -3.18055e-015
rhumerus 4.3463 27.7503 -52.3461
rradius 124.866
rwrist -29.3243
rhand -32.3209 33.5675
rfingers 7.12502
rthumb -5.55858 3.66044
lclavicle -3.49861e-014 -3.18055e-015
lhumerus 45.473 -52.2376 62.6458
lradius 115.106
lwrist 35.4075
lhand -29.9809 16.6171
lfingers 7.12502
lthumb -3.29903 46.5713
rfemur -19.8811 5.18092 15.1913
rtibia 35.0617
rfoot -15.926 -9.23501
rtoes -14.009
lfemur -16.3174 3.81405 -21.6193
ltibia 33.7025
lfoot -19.9505 8.97353
ltoes -11.0595
